<?xml version="1.0" encoding="utf-8"?>
<!-- Generator: Adobe Illustrator 26.0.0, SVG Export Plug-In . SVG Version: 6.00 Build 0)  -->
<svg version="1.1" id="Layer_1" xmlns="http://www.w3.org/2000/svg" xmlns:xlink="http://www.w3.org/1999/xlink" x="0px" y="0px"
	 viewBox="0 0 1336.7 424.04" style="enable-background:new 0 0 1336.7 424.04;" xml:space="preserve">
<style type="text/css">
	.st0{fill:#E9A925;}
	.st1{fill:#321D18;}
</style>
<g>
	<g>
		<path class="st0" d="M597.24,161.22h66.49l-5.49,33.46c-2.2,11.86-4.68,24.17-7.47,36.97s-5.89,25.78-9.32,38.95
			c-1.9,7.31-3.96,14.45-6.16,21.39h-60.55c-7.68-17.4-14.21-35.47-19.65-54.21c-1.9,6.58-4.71,15.1-8.41,25.51
			c-3.69,10.41-7.44,20-11.24,28.7h-62.1c-4.02-13.89-7.82-28.8-11.4-44.76c-2.41-11.06-5.59-27.95-9.56-50.7
			c-2.62-15.42-4.42-27.2-5.38-35.33h65.93l7.47,49.71c0.37,2.41,0.99,5.86,1.87,10.31l15.36-60.01h35.33l14.7,60.01
			c1.02-5.11,2.89-15.79,5.59-32.04C595.29,177.07,596.6,167.73,597.24,161.22z"/>
		<path class="st0" d="M674.82,132.04h65.29v7.79c0,3.72-0.54,6.56-1.63,8.46c-1.1,1.9-2.6,3.21-4.5,3.88
			c-1.9,0.7-5.38,1.04-10.41,1.04h-31.83c-5.27,0-8.89-0.4-10.87-1.2c-2.06-0.8-3.56-2.03-4.55-3.72s-1.47-4.36-1.47-8v-8.24H674.82
			z M674.82,161.01h65.29v131h-65.29L674.82,161.01L674.82,161.01z"/>
		<path class="st0" d="M823.03,132.04v159.97h-34.88c-8.27,0-14.48-1.04-18.66-3.13s-7.28-5.33-9.32-9.72
			c-1.53-3.37-2.3-8.91-2.3-16.68V132.04H823.03z"/>
		<path class="st0" d="M921.57,132.04h65.29v159.97h-58.73c-17.64,0-31.69-1.98-42.24-5.92c-7.39-2.78-14.94-7.52-22.65-14.27
			c-7.71-6.72-13.71-14.32-17.93-22.81c-5.27-10.6-7.9-22.3-7.9-35.12c0-11.62,2.22-21.55,6.69-29.79
			c4.47-8.22,10.33-14.11,17.61-17.67c7.28-3.53,17.64-5.33,31.1-5.33h28.75L921.57,132.04L921.57,132.04z M921.57,245.03v-36.86
			H913c-6.42,0-10.71,0.88-12.77,2.62c-2.09,1.77-3.13,4.31-3.13,7.68c0,4.98,2.28,10.2,6.85,15.63
			C908.5,239.57,914.39,243.21,921.57,245.03z"/>
		<path class="st0" d="M1147.44,246.45v45.53h-78.11c-16.17,0-29.26-2.25-39.27-6.75c-10.01-4.5-17.45-11.56-22.32-21.17
			c-4.87-9.61-7.31-22.46-7.31-38.57c0-17.4,2.44-30.62,7.36-39.67c4.9-9.02,12.21-15.58,21.9-19.65
			c9.69-4.07,24.89-6.08,45.59-6.08c22.89,0,39.19,1.28,48.88,3.83c9.69,2.57,16.68,6.67,20.96,12.34
			c4.28,5.67,6.42,13.6,6.42,23.74c0,7.52-1.07,13.6-3.19,18.15c-2.11,4.58-5.25,8.32-9.37,11.24c-4.12,2.92-9.42,4.98-15.9,6.16
			c-6.48,1.18-15.23,1.77-26.29,1.77c-11.19,0-21.33-0.51-30.38-1.53c0.08,3,0.67,5.25,1.77,6.75c1.1,1.5,2.78,2.52,5.06,3.02
			c2.28,0.59,7.2,0.88,14.8,0.88H1147.44z M1066.25,218.37c4.82,0.43,12.07,0.67,21.71,0.67c4.98,0,8.24-0.67,9.82-1.98
			c1.58-1.31,2.36-3.4,2.36-6.26c0-3-1.18-5.43-3.56-7.36c-2.38-1.9-6.64-2.86-12.77-2.86c-4.9,0-8.62,0.83-11.14,2.46
			s-4.23,3.75-5.11,6.32C1066.92,210.98,1066.49,213.98,1066.25,218.37z"/>
		<path class="st0" d="M1251.24,161.22h65.05c-2.92,16.68-5.76,29.18-8.46,37.53c-2.7,8.32-5.7,14.56-8.99,18.66
			c-2.06,2.49-5.01,4.79-8.89,6.91c5.78,2.11,10.31,4.93,13.6,8.46c3.29,3.53,6.1,9.56,8.46,18.1c3.37,12.58,5.97,26.29,7.79,41.14
			h-65.18c-2.36-15.5-3.96-25.27-4.82-29.28c-1.77-7.9-3.48-12.77-5.17-14.59c-1.18-1.31-2.68-1.98-4.5-1.98
			c-1.61,0-3.02,0.43-4.23,1.26c-1.2,0.83-2.2,2.14-2.97,3.88c-0.78,1.77-1.66,5.11-2.68,10.09c-1.98,9.58-3.61,19.78-4.93,30.6
			h-65.18c1.53-13.3,4.02-26.37,7.47-39.16c1.77-6.58,3.88-12.02,6.37-16.36c1.69-2.86,3.72-5.22,6.16-7.12
			c2.41-1.9,5.67-3.59,9.77-5.06c-3.67-1.77-6.58-3.96-8.78-6.58c-3.29-3.88-6.45-10.41-9.5-19.65c-3.02-9.21-5.76-21.49-8.16-36.86
			h65.39c0.43,6.88,1.2,13.65,2.3,20.29c1.1,6.67,2.03,11.06,2.86,13.17c0.51,1.39,1.31,2.52,2.41,3.35c1.1,0.83,2.3,1.26,3.61,1.26
			c2.28,0,3.99-0.99,5.17-2.97C1247.39,192.38,1249.4,180.68,1251.24,161.22z"/>
	</g>
	<path class="st0" d="M62.41,205.28c0-76.96,62.61-139.6,139.6-139.6c47.86,0,90.16,24.23,115.32,61.03
		c23.34,5.19,44.76,15.42,63.12,29.45c-21.58-78.3-93.39-135.98-178.46-135.98c-102.04,0-185.08,83.04-185.08,185.1
		c0,85.07,57.69,156.86,136.01,178.44c-14.05-18.36-24.25-39.78-29.45-63.12C86.61,295.44,62.41,253.14,62.41,205.28z"/>
	<g>
		<path class="st1" d="M345.59,249.61c-22.46-0.56-33.92-4.28-47.89-13.2c-7.39-4.74-37.58-17.13-60.23,6.34
			c-23.64,22.46-9.8,53.08-5.73,60.82c6.69,12.71,11.38,24.87,11.78,47.33c0.37,22.46,8.97,36.19,8.97,36.19
			c20.24,27.76,51.98,16.03,64.78,0.72c1.45-1.71,4.74-6.05,5.62-8.11v-0.03c4.63-10.97,11.43-22.81,19.57-31.13
			c8.83-9.07,19.33-14.32,31.29-19.33h0.03c2.11-0.88,4.1-2.01,5.84-3.48c21.07-17.59,29.63-46.47,2.09-66.87
			C381.7,258.85,368.03,250.17,345.59,249.61z"/>
		<path class="st1" d="M263.66,208.2c17.67-13.84,16.97-44.25-1.55-67.94c-13.87-17.72-33.78-26.63-50.35-24.2
			c-6.93-5.25-21.79-14.05-41.57-12.18c0,0,21.52,13.95,17.56,29.45c-7.79,15.61-4.26,38.41,10.36,57.07
			C216.62,214.06,245.96,222.04,263.66,208.2z"/>
		<path class="st1" d="M323.03,152.39c-6.24-4.52-18.55-11.32-34.69-9.8c0,0,10.81,7.01,14.32,16.25
			c-11.7,10.57-13.81,31.8-4.12,51.1c11.08,22.08,33.43,33.27,49.92,24.97c16.49-8.27,20.85-32.9,9.77-54.96
			C350.22,164.01,336.33,153.73,323.03,152.39z"/>
		<path class="st1" d="M204.53,303.76c-18.55-9.37-38.92-7.79-49.87,2.76c-10.04-2.76-17.88-14.86-17.88-14.86
			c-1.55,16.46,5.54,28.91,10.04,35.04c0.7,13.73,11.08,28.37,27.6,36.7c22.06,11.14,46.68,6.8,54.98-9.66
			C237.72,337.28,226.58,314.9,204.53,303.76z"/>
		<path class="st1" d="M205.38,266.42c13.97-17.56,6.24-46.98-17.32-65.69c-17.88-14.21-39.72-18.18-55.33-11.54
			c-15.98,5.49-30.68-17.19-30.68-17.19c-1.79,19.22,6.45,33.78,11.72,40.96c-3,16.7,5.76,37.15,23.69,51.39
			C161,283.07,191.41,284.01,205.38,266.42z"/>
	</g>
</g>
</svg>
